#!OML:ASF \\sashay\E\basketball\basketball\Project 1\Capture day 1\Session 1\Subject.ASF
:FULLY-SPECIFIED
:DEGREES
200
root -3.84251 15.1341 4.79469 187.709 37.5916 -174.985
lowerback 20.3858 -5.40131 0.681524
upperback 10.8552 -5.33705 2.58417
thorax 0.600936 -2.09657 3.39096
lowerneck -9.69255 12.3129 -4.93382
upperneck -12.849 17.6765 -2.99575
head -2.70611 9.51675 -0.128698
rclavicle -2.10712e-014 -8.15017e-015
rhumerus -44.3523 22.799 -95.5877
rradius 96.3881
rwrist -33.6302
rhand -30.5219 46.9539
rfingers 7.12502
rthumb -3.82147 17.0084
lclavicle -2.10712e-014 -8.15017e-015
lhumerus -15.1896 -53.8998 89.4545
lradius 84.8658
lwrist 50.9223
lhand -23.4629 32.9938
lfingers 7.12502
lthumb 2.99611 62.9525
rfemur -32.4146 7.18801 -2.80166
rtibia 24.0856
rfoot 10.0408 1.97963
rtoes -48.9935
lfemur -32.9772 20.4108 -16.3731
ltibia 68.2318
lfoot -13.0771 -11.5697
ltoes -10.8799
201
root -3.65549 15.0587 4.78589 187.237 34.9965 -174.9
lowerback 19.5745 -5.78256 0.989462
upperback 10.9675 -5.76687 2.96688
thorax 1.16617 -2.29766 3.63745
lowerneck -9.49372 12.0745 -4.6206
upperneck -11.9569 17.2659 -2.75541
head -2.42046 9.24243 -0.0633987
rclavicle -3.8763e-015 -1.41137e-014
rhumerus -42.9449 22.6874 -95.3662
rradius 96.0948
rwrist -33.9428
rhand -30.7879 46.6071
rfingers 7.12502
rthumb -4.07835 16.6663
lclavicle -3.8763e-015 -1.41137e-014
lhumerus -11.6434 -54.4178 86.3822
lradius 84.5816
lwrist 51.838
lhand -23.0347 34.1112
lfingers 7.12502
lthumb 3.40958 64.0637
rfemur -30.7137 8.44636 -3.75037
rtibia 23.5866
rfoot 12.3738 -1.03726
rtoes -34.8593
lfemur -33.6903 20.7008 -15.6944
ltibia 70.3865
lfoot -12.5039 -12.0415
ltoes -10.1756
202
root -3.47149 14.976 4.77428 186.725 31.7422 -174.833
lowerback 18.652 -6.31468 1.45174
upperback 11.0371 -6.37662 3.44156
thorax 1.75174 -2.57976 3.9082
lowerneck -10.7689 11.7605 -5.80564
upperneck -10.4096 17.0189 -2.02344
head -1.87258 9.08649 0.48089
rclavicle -2.15184e-014 -3.47873e-015
rhumerus -41.2462 22.4341 -94.8303
rradius 95.919
rwrist -34.3706
rhand -30.7925 45.9358
rfingers 7.12502
rthumb -4.08275 15.9952
lclavicle -2.15184e-014 -3.47873e-015
lhumerus -7.34668 -55.0856 82.7534
lradius 84.3815
lwrist 52.84
lhand -22.9941 35.558
lfingers 7.12502
lthumb 3.44877 65.5098
rfemur -28.1766 7.21656 -3.1634
rtibia 24.1313
rfoot 8.44303 0.0253052
rtoes -45.2064
lfemur -34.5573 20.2337 -15.0119
ltibia 72.5335
lfoot -11.8952 -12.6202
ltoes -7.95774
203
root -3.26569 14.8024 4.77367 186.531 28.547 -174.687
lowerback 17.4791 -6.72227 1.8489
upperback 10.9319 -6.89854 3.94934
thorax 2.28735 -2.8359 4.20426
lowerneck -11.5037 11.4803 -6.66708
upperneck -9.07553 16.7439 -1.61085
head -1.42636 8.90607 0.837235
rclavicle 1.42713e-014 8.82666e-014
rhumerus -39.3852 22.3411 -94.2334
rradius 95.7657
rwrist -35.1599
rhand -30.8606 44.5913
rfingers 7.12502
rthumb -4.14854 14.6519
lclavicle 1.42713e-014 8.82666e-014
lhumerus -2.6828 -55.7685 78.6769
lradius 84.3981
lwrist 53.8996
lhand -23.3446 37.6832
lfingers 7.12502
lthumb 3.11034 67.6402
rfemur -26.4031 5.68603 -2.48119
rtibia 25.4421
rfoot 4.55287 -0.212822
rtoes -52.1711
lfemur -36.1857 19.8633 -14.2619
ltibia 75.0791
lfoot -11.3261 -13.3021
ltoes -5.89222
204
root -3.07134 14.655 4.772 186.136 25.3885 -174.389
lowerback 16.5812 -7.1342 2.46296
upperback 10.8135 -7.39507 4.20751
thorax 2.60793 -3.05413 4.12877
lowerneck -12.0671 11.1492 -6.99938
upperneck -7.48483 16.3307 -0.906429
head -0.901176 8.62224 1.20704
rclavicle 1.74185e-014 -5.31749e-015
rhumerus -37.2837 22.1236 -94.0438
rradius 95.6623
rwrist -36.0568
rhand -30.9113 45.1106
rfingers 7.12502
rthumb -4.19751 15.1722
lclavicle 1.74185e-014 -5.31749e-015
lhumerus 2.29729 -56.3757 73.6769
lradius 84.7975
lwrist 55.1337
lhand -23.9471 39.6546
lfingers 7.12502
lthumb 2.52844 69.6194
rfemur -24.7165 4.025 -1.54543
rtibia 27.5416
rfoot 1.16492 -2.92874
rtoes -54.1752
lfemur -37.4073 19.5331 -13.3859
ltibia 77.3438
lfoot -11.2245 -13.6965
ltoes -7.52098
